v -0.484085 0.312334 0
vn 0 0 1
vt 0.0159151 0.562784
v -0.312997 0.511273 0
vn 0 0 1
vt 0.187003 0.761897
v -0.237401 0.00331566 0
vn 0 0 1
vt 0.262599 0.254203
v -0.149867 0.6187 0
vn 0 0 1
vt 0.350133 0.869668
v -0.0145889 -0.234085 0
vn 0 0 1
vt 0.485411 0.0164285
v 0.0835544 0.735411 0
vn 0 0 1
vt 0.583554 0.985981
v 0.137931 -0.0165783 0
vn 0 0 1
vt 0.637931 0.233667
v 0.302387 0.622679 0
vn 0 0 1
vt 0.802387 0.872734
v 0.433687 0.188992 0
vn 0 0 1
vt 0.933687 0.439625
v 0.466843 0.439655 0
vn 0 0 1
vt 0.966843 0.69005
f 7/7/7 3/3/3 5/5/5
f 8/8/8 7/7/7 9/9/9
f 7/7/7 5/5/5 9/9/9
f 3/3/3 7/7/7 4/4/4
f 1/1/1 3/3/3 2/2/2
f 2/2/2 3/3/3 4/4/4
f 8/8/8 9/9/9 10/10/10
f 4/4/4 7/7/7 8/8/8
f 4/4/4 8/8/8 6/6/6
